<?xml version="1.0" standalone="no"?>
<!DOCTYPE svg PUBLIC "-//W3C//DTD SVG 20010904//EN"
 "http://www.w3.org/TR/2001/REC-SVG-20010904/DTD/svg10.dtd">
<svg version="1.0" xmlns="http://www.w3.org/2000/svg"
 width="640.000000pt" height="640.000000pt" viewBox="0 0 640.000000 640.000000"
 preserveAspectRatio="xMidYMid meet">
<metadata>
Created by potrace 1.14, written by Peter Selinger 2001-2017
</metadata>
<g transform="translate(0.000000,640.000000) scale(0.100000,-0.100000)"
fill="#000000" stroke="none">
<path d="M3040 6074 c-19 -2 -87 -9 -150 -15 -306 -28 -626 -119 -941 -266
-500 -235 -951 -647 -1241 -1135 -193 -327 -313 -672 -375 -1079 -22 -145 -25
-586 -5 -729 69 -486 222 -887 488 -1275 112 -163 216 -286 375 -440 463 -449
1051 -723 1704 -796 150 -17 463 -17 615 0 990 110 1851 712 2285 1596 662
1350 184 2952 -1115 3735 -331 200 -737 338 -1130 386 -124 15 -442 26 -510
18z m170 -1958 l0 -694 173 -85 c94 -47 208 -109 252 -138 108 -71 201 -167
247 -254 60 -115 73 -172 72 -320 0 -113 -4 -140 -27 -211 -51 -154 -162 -310
-290 -408 -64 -49 -189 -116 -217 -116 -6 0 -10 27 -10 64 0 63 1 65 34 86 53
32 130 121 161 187 15 32 35 93 43 135 40 191 -40 380 -211 502 -60 43 -204
126 -219 126 -5 0 -8 -333 -8 -740 l0 -741 -77 3 -78 3 -3 775 -3 775 -106 50
c-234 109 -427 272 -496 416 -47 100 -61 166 -61 284 1 121 21 202 76 308 67
128 218 266 352 322 l36 15 0 -60 c0 -61 0 -61 -55 -115 -132 -129 -168 -351
-85 -522 39 -80 140 -173 247 -230 44 -24 83 -43 87 -43 3 0 6 297 6 660 l0
660 80 0 80 0 0 -694z m361 323 c162 -81 270 -237 270 -390 0 -91 -15 -143
-58 -189 -40 -45 -82 -60 -163 -60 -111 1 -190 66 -197 163 -5 61 10 94 52
117 38 21 72 71 81 118 12 60 -57 159 -128 185 -14 5 -18 18 -18 61 l0 55 53
-16 c28 -8 77 -28 108 -44z m-942 -1704 c16 -8 40 -28 55 -45 69 -82 56 -250
-20 -250 -27 0 -109 -103 -119 -150 -14 -62 40 -159 123 -223 48 -36 146 -87
170 -87 8 0 12 -19 12 -61 0 -53 -2 -60 -17 -56 -189 51 -279 101 -388 211
-119 120 -165 228 -165 385 0 131 49 224 143 270 51 25 163 29 206 6z"/>
</g>
</svg>
